<svg width="1440" height="1024" viewBox="0 0 1440 1024" fill="none" xmlns="http://www.w3.org/2000/svg">
<g clip-path="url(#clip0_1126_66981)">
<rect width="1440" height="1024" fill="white"/>
<path d="M1462 416.979C1016.11 202.49 736.5 1037 0 795V-4H1462V416.979Z" fill="#339DD9"/>
<circle cx="518.5" cy="760.5" r="235.5" fill="white" fill-opacity="0.65"/>
<circle cx="1396" cy="170" r="428" fill="white" fill-opacity="0.48"/>
<circle cx="0.5" cy="87.5" r="321.5" fill="white" fill-opacity="0.44"/>
<circle cx="245" cy="603" r="5" fill="white" fill-opacity="0.44"/>
<circle cx="177" cy="539" r="5" fill="white" fill-opacity="0.44"/>
<circle cx="323" cy="548" r="5" fill="white" fill-opacity="0.44"/>
<circle cx="255" cy="484" r="5" fill="white" fill-opacity="0.44"/>
<circle cx="518.5" cy="760.5" r="235.5" fill="white" fill-opacity="0.65"/>
<circle cx="245" cy="603" r="5" fill="white" fill-opacity="0.44"/>
<circle cx="177" cy="539" r="5" fill="white" fill-opacity="0.44"/>
<circle cx="323" cy="548" r="5" fill="white" fill-opacity="0.44"/>
<circle cx="255" cy="484" r="5" fill="white" fill-opacity="0.44"/>
<circle cx="364" cy="479" r="5" fill="white" fill-opacity="0.44"/>
<circle cx="296" cy="415" r="5" fill="white" fill-opacity="0.44"/>
<circle cx="442" cy="424" r="5" fill="white" fill-opacity="0.44"/>
<circle cx="374" cy="360" r="5" fill="white" fill-opacity="0.44"/>
<circle cx="201" cy="647" r="5" fill="white" fill-opacity="0.44"/>
<circle cx="133" cy="583" r="5" fill="white" fill-opacity="0.44"/>
<circle cx="279" cy="592" r="5" fill="white" fill-opacity="0.44"/>
<circle cx="211" cy="528" r="5" fill="white" fill-opacity="0.44"/>
<circle cx="320" cy="523" r="5" fill="white" fill-opacity="0.44"/>
<circle cx="252" cy="459" r="5" fill="white" fill-opacity="0.44"/>
<circle cx="398" cy="468" r="5" fill="white" fill-opacity="0.44"/>
<circle cx="330" cy="404" r="5" fill="white" fill-opacity="0.44"/>
<circle cx="261" cy="625" r="5" fill="white" fill-opacity="0.44"/>
<circle cx="193" cy="561" r="5" fill="white" fill-opacity="0.44"/>
<circle cx="339" cy="570" r="5" fill="white" fill-opacity="0.44"/>
<circle cx="271" cy="506" r="5" fill="white" fill-opacity="0.44"/>
<circle cx="380" cy="501" r="5" fill="white" fill-opacity="0.44"/>
<circle cx="312" cy="437" r="5" fill="white" fill-opacity="0.44"/>
<circle cx="458" cy="446" r="5" fill="white" fill-opacity="0.44"/>
<circle cx="390" cy="382" r="5" fill="white" fill-opacity="0.44"/>
<circle cx="396" cy="261" r="5" fill="white" fill-opacity="0.44"/>
<circle cx="328" cy="197" r="5" fill="white" fill-opacity="0.44"/>
<circle cx="474" cy="206" r="5" fill="white" fill-opacity="0.44"/>
<circle cx="406" cy="142" r="5" fill="white" fill-opacity="0.44"/>
<circle cx="412" cy="283" r="5" fill="white" fill-opacity="0.44"/>
<circle cx="344" cy="219" r="5" fill="white" fill-opacity="0.44"/>
<circle cx="490" cy="228" r="5" fill="white" fill-opacity="0.44"/>
<circle cx="422" cy="164" r="5" fill="white" fill-opacity="0.44"/>
<circle cx="531" cy="159" r="5" fill="white" fill-opacity="0.44"/>
<circle cx="463" cy="95" r="5" fill="white" fill-opacity="0.44"/>
<circle cx="609" cy="104" r="5" fill="white" fill-opacity="0.44"/>
<circle cx="541" cy="40" r="5" fill="white" fill-opacity="0.44"/>
<circle cx="437" cy="266" r="5" fill="white" fill-opacity="0.44"/>
<circle cx="369" cy="202" r="5" fill="white" fill-opacity="0.44"/>
<circle cx="515" cy="211" r="5" fill="white" fill-opacity="0.44"/>
<circle cx="447" cy="147" r="5" fill="white" fill-opacity="0.44"/>
<circle cx="453" cy="288" r="5" fill="white" fill-opacity="0.44"/>
<circle cx="385" cy="224" r="5" fill="white" fill-opacity="0.44"/>
<circle cx="531" cy="233" r="5" fill="white" fill-opacity="0.44"/>
<circle cx="463" cy="169" r="5" fill="white" fill-opacity="0.44"/>
<circle cx="572" cy="164" r="5" fill="white" fill-opacity="0.44"/>
<circle cx="504" cy="100" r="5" fill="white" fill-opacity="0.44"/>
<circle cx="650" cy="109" r="5" fill="white" fill-opacity="0.44"/>
<circle cx="582" cy="45" r="5" fill="white" fill-opacity="0.44"/>
<circle cx="542" cy="329" r="5" fill="white" fill-opacity="0.44"/>
<circle cx="474" cy="265" r="5" fill="white" fill-opacity="0.44"/>
<circle cx="620" cy="274" r="5" fill="white" fill-opacity="0.44"/>
<circle cx="552" cy="210" r="5" fill="white" fill-opacity="0.44"/>
<circle cx="558" cy="351" r="5" fill="white" fill-opacity="0.44"/>
<circle cx="490" cy="287" r="5" fill="white" fill-opacity="0.44"/>
<circle cx="636" cy="296" r="5" fill="white" fill-opacity="0.44"/>
<circle cx="568" cy="232" r="5" fill="white" fill-opacity="0.44"/>
<circle cx="677" cy="227" r="5" fill="white" fill-opacity="0.44"/>
<circle cx="609" cy="163" r="5" fill="white" fill-opacity="0.44"/>
<circle cx="755" cy="172" r="5" fill="white" fill-opacity="0.44"/>
<circle cx="687" cy="108" r="5" fill="white" fill-opacity="0.44"/>
<circle cx="626" cy="340" r="5" fill="white" fill-opacity="0.44"/>
<circle cx="558" cy="276" r="5" fill="white" fill-opacity="0.44"/>
<circle cx="704" cy="285" r="5" fill="white" fill-opacity="0.44"/>
<circle cx="636" cy="221" r="5" fill="white" fill-opacity="0.44"/>
<circle cx="642" cy="362" r="5" fill="white" fill-opacity="0.44"/>
<circle cx="574" cy="298" r="5" fill="white" fill-opacity="0.44"/>
<circle cx="720" cy="307" r="5" fill="white" fill-opacity="0.44"/>
<circle cx="652" cy="243" r="5" fill="white" fill-opacity="0.44"/>
<circle cx="761" cy="238" r="5" fill="white" fill-opacity="0.44"/>
<circle cx="693" cy="174" r="5" fill="white" fill-opacity="0.44"/>
<circle cx="839" cy="183" r="5" fill="white" fill-opacity="0.44"/>
<circle cx="771" cy="119" r="5" fill="white" fill-opacity="0.44"/>
<circle cx="708" cy="615" r="5" fill="white" fill-opacity="0.44"/>
<circle cx="640" cy="551" r="5" fill="white" fill-opacity="0.44"/>
<circle cx="786" cy="560" r="5" fill="white" fill-opacity="0.44"/>
<circle cx="718" cy="496" r="5" fill="white" fill-opacity="0.44"/>
<circle cx="827" cy="491" r="5" fill="white" fill-opacity="0.44"/>
<circle cx="759" cy="427" r="5" fill="white" fill-opacity="0.44"/>
<circle cx="905" cy="436" r="5" fill="white" fill-opacity="0.44"/>
<circle cx="837" cy="372" r="5" fill="white" fill-opacity="0.44"/>
<circle cx="664" cy="659" r="5" fill="white" fill-opacity="0.44"/>
<circle cx="596" cy="595" r="5" fill="white" fill-opacity="0.44"/>
<circle cx="742" cy="604" r="5" fill="white" fill-opacity="0.44"/>
<circle cx="674" cy="540" r="5" fill="white" fill-opacity="0.44"/>
<circle cx="783" cy="535" r="5" fill="white" fill-opacity="0.44"/>
<circle cx="715" cy="471" r="5" fill="white" fill-opacity="0.44"/>
<circle cx="861" cy="480" r="5" fill="white" fill-opacity="0.44"/>
<circle cx="793" cy="416" r="5" fill="white" fill-opacity="0.44"/>
<circle cx="724" cy="637" r="5" fill="white" fill-opacity="0.44"/>
<circle cx="656" cy="573" r="5" fill="white" fill-opacity="0.44"/>
<circle cx="802" cy="582" r="5" fill="white" fill-opacity="0.44"/>
<circle cx="734" cy="518" r="5" fill="white" fill-opacity="0.44"/>
<circle cx="843" cy="513" r="5" fill="white" fill-opacity="0.44"/>
<circle cx="775" cy="449" r="5" fill="white" fill-opacity="0.44"/>
<circle cx="921" cy="458" r="5" fill="white" fill-opacity="0.44"/>
<circle cx="853" cy="394" r="5" fill="white" fill-opacity="0.44"/>
<circle cx="859" cy="273" r="5" fill="white" fill-opacity="0.44"/>
<circle cx="791" cy="209" r="5" fill="white" fill-opacity="0.44"/>
<circle cx="937" cy="218" r="5" fill="white" fill-opacity="0.44"/>
<circle cx="869" cy="154" r="5" fill="white" fill-opacity="0.44"/>
<circle cx="875" cy="295" r="5" fill="white" fill-opacity="0.44"/>
<circle cx="807" cy="231" r="5" fill="white" fill-opacity="0.44"/>
<circle cx="953" cy="240" r="5" fill="white" fill-opacity="0.44"/>
<circle cx="885" cy="176" r="5" fill="white" fill-opacity="0.44"/>
<circle cx="994" cy="171" r="5" fill="white" fill-opacity="0.44"/>
<circle cx="926" cy="107" r="5" fill="white" fill-opacity="0.44"/>
<circle cx="1072" cy="116" r="5" fill="white" fill-opacity="0.44"/>
<circle cx="1004" cy="52" r="5" fill="white" fill-opacity="0.44"/>
<circle cx="900" cy="278" r="5" fill="white" fill-opacity="0.44"/>
<circle cx="832" cy="214" r="5" fill="white" fill-opacity="0.44"/>
<circle cx="978" cy="223" r="5" fill="white" fill-opacity="0.44"/>
<circle cx="910" cy="159" r="5" fill="white" fill-opacity="0.44"/>
<circle cx="916" cy="300" r="5" fill="white" fill-opacity="0.44"/>
<circle cx="848" cy="236" r="5" fill="white" fill-opacity="0.44"/>
<circle cx="994" cy="245" r="5" fill="white" fill-opacity="0.44"/>
<circle cx="926" cy="181" r="5" fill="white" fill-opacity="0.44"/>
<circle cx="1035" cy="176" r="5" fill="white" fill-opacity="0.44"/>
<circle cx="967" cy="112" r="5" fill="white" fill-opacity="0.44"/>
<circle cx="1113" cy="121" r="5" fill="white" fill-opacity="0.44"/>
<circle cx="1045" cy="57" r="5" fill="white" fill-opacity="0.44"/>
<circle cx="1005" cy="341" r="5" fill="white" fill-opacity="0.44"/>
<circle cx="937" cy="277" r="5" fill="white" fill-opacity="0.44"/>
<circle cx="1083" cy="286" r="5" fill="white" fill-opacity="0.44"/>
<circle cx="1015" cy="222" r="5" fill="white" fill-opacity="0.44"/>
<circle cx="1021" cy="363" r="5" fill="white" fill-opacity="0.44"/>
<circle cx="953" cy="299" r="5" fill="white" fill-opacity="0.44"/>
<circle cx="1099" cy="308" r="5" fill="white" fill-opacity="0.44"/>
<circle cx="1031" cy="244" r="5" fill="white" fill-opacity="0.44"/>
<circle cx="1140" cy="239" r="5" fill="white" fill-opacity="0.44"/>
<circle cx="1072" cy="175" r="5" fill="white" fill-opacity="0.44"/>
<circle cx="1218" cy="184" r="5" fill="white" fill-opacity="0.44"/>
<circle cx="1150" cy="120" r="5" fill="white" fill-opacity="0.44"/>
<circle cx="1089" cy="352" r="5" fill="white" fill-opacity="0.44"/>
<circle cx="1021" cy="288" r="5" fill="white" fill-opacity="0.44"/>
<circle cx="1167" cy="297" r="5" fill="white" fill-opacity="0.44"/>
<circle cx="1099" cy="233" r="5" fill="white" fill-opacity="0.44"/>
<circle cx="1105" cy="374" r="5" fill="white" fill-opacity="0.44"/>
<circle cx="1037" cy="310" r="5" fill="white" fill-opacity="0.44"/>
<circle cx="1183" cy="319" r="5" fill="white" fill-opacity="0.44"/>
<circle cx="1115" cy="255" r="5" fill="white" fill-opacity="0.44"/>
<circle cx="1224" cy="250" r="5" fill="white" fill-opacity="0.44"/>
<circle cx="1156" cy="186" r="5" fill="white" fill-opacity="0.44"/>
<circle cx="1302" cy="195" r="5" fill="white" fill-opacity="0.44"/>
<circle cx="1234" cy="131" r="5" fill="white" fill-opacity="0.44"/>
<circle cx="992" cy="526" r="5" fill="white" fill-opacity="0.44"/>
<circle cx="924" cy="462" r="5" fill="white" fill-opacity="0.44"/>
<circle cx="1070" cy="471" r="5" fill="white" fill-opacity="0.44"/>
<circle cx="1002" cy="407" r="5" fill="white" fill-opacity="0.44"/>
<circle cx="1111" cy="402" r="5" fill="white" fill-opacity="0.44"/>
<circle cx="1043" cy="338" r="5" fill="white" fill-opacity="0.44"/>
<circle cx="1189" cy="347" r="5" fill="white" fill-opacity="0.44"/>
<circle cx="1121" cy="283" r="5" fill="white" fill-opacity="0.44"/>
<circle cx="948" cy="570" r="5" fill="white" fill-opacity="0.44"/>
<circle cx="880" cy="506" r="5" fill="white" fill-opacity="0.44"/>
<circle cx="1026" cy="515" r="5" fill="white" fill-opacity="0.44"/>
<circle cx="958" cy="451" r="5" fill="white" fill-opacity="0.44"/>
<circle cx="1067" cy="446" r="5" fill="white" fill-opacity="0.44"/>
<circle cx="999" cy="382" r="5" fill="white" fill-opacity="0.44"/>
<circle cx="1145" cy="391" r="5" fill="white" fill-opacity="0.44"/>
<circle cx="1077" cy="327" r="5" fill="white" fill-opacity="0.44"/>
<circle cx="1008" cy="548" r="5" fill="white" fill-opacity="0.44"/>
<circle cx="940" cy="484" r="5" fill="white" fill-opacity="0.44"/>
<circle cx="1086" cy="493" r="5" fill="white" fill-opacity="0.44"/>
<circle cx="1018" cy="429" r="5" fill="white" fill-opacity="0.44"/>
<circle cx="1127" cy="424" r="5" fill="white" fill-opacity="0.44"/>
<circle cx="1059" cy="360" r="5" fill="white" fill-opacity="0.44"/>
<circle cx="1205" cy="369" r="5" fill="white" fill-opacity="0.44"/>
<circle cx="1137" cy="305" r="5" fill="white" fill-opacity="0.44"/>
<circle cx="1143" cy="184" r="5" fill="white" fill-opacity="0.44"/>
<circle cx="1075" cy="120" r="5" fill="white" fill-opacity="0.44"/>
<circle cx="1221" cy="129" r="5" fill="white" fill-opacity="0.44"/>
<circle cx="1153" cy="65" r="5" fill="white" fill-opacity="0.44"/>
<circle cx="1159" cy="206" r="5" fill="white" fill-opacity="0.44"/>
<circle cx="1091" cy="142" r="5" fill="white" fill-opacity="0.44"/>
<circle cx="1237" cy="151" r="5" fill="white" fill-opacity="0.44"/>
<circle cx="1169" cy="87" r="5" fill="white" fill-opacity="0.44"/>
<circle cx="1278" cy="82" r="5" fill="white" fill-opacity="0.44"/>
<circle cx="1210" cy="18" r="5" fill="white" fill-opacity="0.44"/>
<circle cx="1356" cy="27" r="5" fill="white" fill-opacity="0.44"/>
<circle cx="1184" cy="189" r="5" fill="white" fill-opacity="0.44"/>
<circle cx="1116" cy="125" r="5" fill="white" fill-opacity="0.44"/>
<circle cx="1262" cy="134" r="5" fill="white" fill-opacity="0.44"/>
<circle cx="1194" cy="70" r="5" fill="white" fill-opacity="0.44"/>
<circle cx="1200" cy="211" r="5" fill="white" fill-opacity="0.44"/>
<circle cx="1132" cy="147" r="5" fill="white" fill-opacity="0.44"/>
<circle cx="1278" cy="156" r="5" fill="white" fill-opacity="0.44"/>
<circle cx="1210" cy="92" r="5" fill="white" fill-opacity="0.44"/>
<circle cx="1319" cy="87" r="5" fill="white" fill-opacity="0.44"/>
<circle cx="1251" cy="23" r="5" fill="white" fill-opacity="0.44"/>
<circle cx="1397" cy="32" r="5" fill="white" fill-opacity="0.44"/>
<circle cx="1289" cy="252" r="5" fill="white" fill-opacity="0.44"/>
<circle cx="1221" cy="188" r="5" fill="white" fill-opacity="0.44"/>
<circle cx="1367" cy="197" r="5" fill="white" fill-opacity="0.44"/>
<circle cx="1299" cy="133" r="5" fill="white" fill-opacity="0.44"/>
<circle cx="1305" cy="274" r="5" fill="white" fill-opacity="0.44"/>
<circle cx="1237" cy="210" r="5" fill="white" fill-opacity="0.44"/>
<circle cx="1383" cy="219" r="5" fill="white" fill-opacity="0.44"/>
<circle cx="1315" cy="155" r="5" fill="white" fill-opacity="0.44"/>
<circle cx="1424" cy="150" r="5" fill="white" fill-opacity="0.44"/>
<circle cx="1356" cy="86" r="5" fill="white" fill-opacity="0.44"/>
<circle cx="1434" cy="31" r="5" fill="white" fill-opacity="0.44"/>
<circle cx="1373" cy="263" r="5" fill="white" fill-opacity="0.44"/>
<circle cx="1305" cy="199" r="5" fill="white" fill-opacity="0.44"/>
<circle cx="1383" cy="144" r="5" fill="white" fill-opacity="0.44"/>
<circle cx="1389" cy="285" r="5" fill="white" fill-opacity="0.44"/>
<circle cx="1321" cy="221" r="5" fill="white" fill-opacity="0.44"/>
<circle cx="1399" cy="166" r="5" fill="white" fill-opacity="0.44"/>
<circle cx="1440" cy="97" r="5" fill="white" fill-opacity="0.44"/>
<circle cx="1132" cy="682" r="5" fill="white" fill-opacity="0.44"/>
<circle cx="1064" cy="618" r="5" fill="white" fill-opacity="0.44"/>
<circle cx="1210" cy="627" r="5" fill="white" fill-opacity="0.44"/>
<circle cx="1142" cy="563" r="5" fill="white" fill-opacity="0.44"/>
<circle cx="1251" cy="558" r="5" fill="white" fill-opacity="0.44"/>
<circle cx="1183" cy="494" r="5" fill="white" fill-opacity="0.44"/>
<circle cx="1329" cy="503" r="5" fill="white" fill-opacity="0.44"/>
<circle cx="1261" cy="439" r="5" fill="white" fill-opacity="0.44"/>
<circle cx="1088" cy="726" r="5" fill="white" fill-opacity="0.44"/>
<circle cx="1020" cy="662" r="5" fill="white" fill-opacity="0.44"/>
<circle cx="1166" cy="671" r="5" fill="white" fill-opacity="0.44"/>
<circle cx="1098" cy="607" r="5" fill="white" fill-opacity="0.44"/>
<circle cx="1207" cy="602" r="5" fill="white" fill-opacity="0.44"/>
<circle cx="1139" cy="538" r="5" fill="white" fill-opacity="0.44"/>
<circle cx="1285" cy="547" r="5" fill="white" fill-opacity="0.44"/>
<circle cx="1217" cy="483" r="5" fill="white" fill-opacity="0.44"/>
<circle cx="1148" cy="704" r="5" fill="white" fill-opacity="0.44"/>
<circle cx="1080" cy="640" r="5" fill="white" fill-opacity="0.44"/>
<circle cx="1226" cy="649" r="5" fill="white" fill-opacity="0.44"/>
<circle cx="1158" cy="585" r="5" fill="white" fill-opacity="0.44"/>
<circle cx="1267" cy="580" r="5" fill="white" fill-opacity="0.44"/>
<circle cx="1199" cy="516" r="5" fill="white" fill-opacity="0.44"/>
<circle cx="1345" cy="525" r="5" fill="white" fill-opacity="0.44"/>
<circle cx="1277" cy="461" r="5" fill="white" fill-opacity="0.44"/>
<circle cx="1283" cy="340" r="5" fill="white" fill-opacity="0.44"/>
<circle cx="1215" cy="276" r="5" fill="white" fill-opacity="0.44"/>
<circle cx="1361" cy="285" r="5" fill="white" fill-opacity="0.44"/>
<circle cx="1293" cy="221" r="5" fill="white" fill-opacity="0.44"/>
<circle cx="1299" cy="362" r="5" fill="white" fill-opacity="0.44"/>
<circle cx="1231" cy="298" r="5" fill="white" fill-opacity="0.44"/>
<circle cx="1377" cy="307" r="5" fill="white" fill-opacity="0.44"/>
<circle cx="1309" cy="243" r="5" fill="white" fill-opacity="0.44"/>
<circle cx="1418" cy="238" r="5" fill="white" fill-opacity="0.44"/>
<circle cx="1350" cy="174" r="5" fill="white" fill-opacity="0.44"/>
<circle cx="1428" cy="119" r="5" fill="white" fill-opacity="0.44"/>
<circle cx="1324" cy="345" r="5" fill="white" fill-opacity="0.44"/>
<circle cx="1256" cy="281" r="5" fill="white" fill-opacity="0.44"/>
<circle cx="1402" cy="290" r="5" fill="white" fill-opacity="0.44"/>
<circle cx="1334" cy="226" r="5" fill="white" fill-opacity="0.44"/>
<circle cx="1340" cy="367" r="5" fill="white" fill-opacity="0.44"/>
<circle cx="1272" cy="303" r="5" fill="white" fill-opacity="0.44"/>
<circle cx="1418" cy="312" r="5" fill="white" fill-opacity="0.44"/>
<circle cx="1350" cy="248" r="5" fill="white" fill-opacity="0.44"/>
<circle cx="1391" cy="179" r="5" fill="white" fill-opacity="0.44"/>
<circle cx="1429" cy="408" r="5" fill="white" fill-opacity="0.44"/>
<circle cx="1361" cy="344" r="5" fill="white" fill-opacity="0.44"/>
<circle cx="1439" cy="289" r="5" fill="white" fill-opacity="0.44"/>
<circle cx="1377" cy="366" r="5" fill="white" fill-opacity="0.44"/>
<circle cx="632" cy="501" r="5" fill="white" fill-opacity="0.44"/>
<circle cx="564" cy="437" r="5" fill="white" fill-opacity="0.44"/>
<circle cx="710" cy="446" r="5" fill="white" fill-opacity="0.44"/>
<circle cx="642" cy="382" r="5" fill="white" fill-opacity="0.44"/>
<circle cx="751" cy="377" r="5" fill="white" fill-opacity="0.44"/>
<circle cx="683" cy="313" r="5" fill="white" fill-opacity="0.44"/>
<circle cx="829" cy="322" r="5" fill="white" fill-opacity="0.44"/>
<circle cx="761" cy="258" r="5" fill="white" fill-opacity="0.44"/>
<circle cx="588" cy="545" r="5" fill="white" fill-opacity="0.44"/>
<circle cx="520" cy="481" r="5" fill="white" fill-opacity="0.44"/>
<circle cx="666" cy="490" r="5" fill="white" fill-opacity="0.44"/>
<circle cx="598" cy="426" r="5" fill="white" fill-opacity="0.44"/>
<circle cx="707" cy="421" r="5" fill="white" fill-opacity="0.44"/>
<circle cx="639" cy="357" r="5" fill="white" fill-opacity="0.44"/>
<circle cx="785" cy="366" r="5" fill="white" fill-opacity="0.44"/>
<circle cx="717" cy="302" r="5" fill="white" fill-opacity="0.44"/>
<circle cx="648" cy="523" r="5" fill="white" fill-opacity="0.44"/>
<circle cx="580" cy="459" r="5" fill="white" fill-opacity="0.44"/>
<circle cx="726" cy="468" r="5" fill="white" fill-opacity="0.44"/>
<circle cx="658" cy="404" r="5" fill="white" fill-opacity="0.44"/>
<circle cx="767" cy="399" r="5" fill="white" fill-opacity="0.44"/>
<circle cx="699" cy="335" r="5" fill="white" fill-opacity="0.44"/>
<circle cx="845" cy="344" r="5" fill="white" fill-opacity="0.44"/>
<circle cx="777" cy="280" r="5" fill="white" fill-opacity="0.44"/>
<circle cx="783" cy="159" r="5" fill="white" fill-opacity="0.44"/>
<circle cx="715" cy="95" r="5" fill="white" fill-opacity="0.44"/>
<circle cx="861" cy="104" r="5" fill="white" fill-opacity="0.44"/>
<circle cx="793" cy="40" r="5" fill="white" fill-opacity="0.44"/>
<circle cx="799" cy="181" r="5" fill="white" fill-opacity="0.44"/>
<circle cx="731" cy="117" r="5" fill="white" fill-opacity="0.44"/>
<circle cx="877" cy="126" r="5" fill="white" fill-opacity="0.44"/>
<circle cx="809" cy="62" r="5" fill="white" fill-opacity="0.44"/>
<circle cx="918" cy="57" r="5" fill="white" fill-opacity="0.44"/>
<circle cx="996" cy="2" r="5" fill="white" fill-opacity="0.44"/>
<circle cx="824" cy="164" r="5" fill="white" fill-opacity="0.44"/>
<circle cx="756" cy="100" r="5" fill="white" fill-opacity="0.44"/>
<circle cx="902" cy="109" r="5" fill="white" fill-opacity="0.44"/>
<circle cx="834" cy="45" r="5" fill="white" fill-opacity="0.44"/>
<circle cx="840" cy="186" r="5" fill="white" fill-opacity="0.44"/>
<circle cx="772" cy="122" r="5" fill="white" fill-opacity="0.44"/>
<circle cx="918" cy="131" r="5" fill="white" fill-opacity="0.44"/>
<circle cx="850" cy="67" r="5" fill="white" fill-opacity="0.44"/>
<circle cx="959" cy="62" r="5" fill="white" fill-opacity="0.44"/>
<circle cx="891" cy="-2" r="5" fill="white" fill-opacity="0.44"/>
<circle cx="1037" cy="7" r="5" fill="white" fill-opacity="0.44"/>
<circle cx="929" cy="227" r="5" fill="white" fill-opacity="0.44"/>
<circle cx="861" cy="163" r="5" fill="white" fill-opacity="0.44"/>
<circle cx="1007" cy="172" r="5" fill="white" fill-opacity="0.44"/>
<circle cx="939" cy="108" r="5" fill="white" fill-opacity="0.44"/>
<circle cx="945" cy="249" r="5" fill="white" fill-opacity="0.44"/>
<circle cx="877" cy="185" r="5" fill="white" fill-opacity="0.44"/>
<circle cx="1023" cy="194" r="5" fill="white" fill-opacity="0.44"/>
<circle cx="955" cy="130" r="5" fill="white" fill-opacity="0.44"/>
<circle cx="1064" cy="125" r="5" fill="white" fill-opacity="0.44"/>
<circle cx="996" cy="61" r="5" fill="white" fill-opacity="0.44"/>
<circle cx="1142" cy="70" r="5" fill="white" fill-opacity="0.44"/>
<circle cx="1074" cy="6" r="5" fill="white" fill-opacity="0.44"/>
<circle cx="1013" cy="238" r="5" fill="white" fill-opacity="0.44"/>
<circle cx="945" cy="174" r="5" fill="white" fill-opacity="0.44"/>
<circle cx="1091" cy="183" r="5" fill="white" fill-opacity="0.44"/>
<circle cx="1023" cy="119" r="5" fill="white" fill-opacity="0.44"/>
<circle cx="1029" cy="260" r="5" fill="white" fill-opacity="0.44"/>
<circle cx="961" cy="196" r="5" fill="white" fill-opacity="0.44"/>
<circle cx="1107" cy="205" r="5" fill="white" fill-opacity="0.44"/>
<circle cx="1039" cy="141" r="5" fill="white" fill-opacity="0.44"/>
<circle cx="1148" cy="136" r="5" fill="white" fill-opacity="0.44"/>
<circle cx="1080" cy="72" r="5" fill="white" fill-opacity="0.44"/>
<circle cx="1226" cy="81" r="5" fill="white" fill-opacity="0.44"/>
<circle cx="1158" cy="17" r="5" fill="white" fill-opacity="0.44"/>
<circle cx="57" cy="692" r="5" fill="white" fill-opacity="0.44"/>
<circle cx="13" cy="736" r="5" fill="white" fill-opacity="0.44"/>
<circle cx="73" cy="714" r="5" fill="white" fill-opacity="0.44"/>
<circle cx="5" cy="650" r="5" fill="white" fill-opacity="0.44"/>
<circle cx="11" cy="529" r="5" fill="white" fill-opacity="0.44"/>
<circle cx="89" cy="474" r="5" fill="white" fill-opacity="0.44"/>
<circle cx="21" cy="410" r="5" fill="white" fill-opacity="0.44"/>
<circle cx="27" cy="551" r="5" fill="white" fill-opacity="0.44"/>
<circle cx="105" cy="496" r="5" fill="white" fill-opacity="0.44"/>
<circle cx="37" cy="432" r="5" fill="white" fill-opacity="0.44"/>
<circle cx="146" cy="427" r="5" fill="white" fill-opacity="0.44"/>
<circle cx="78" cy="363" r="5" fill="white" fill-opacity="0.44"/>
<circle cx="224" cy="372" r="5" fill="white" fill-opacity="0.44"/>
<circle cx="156" cy="308" r="5" fill="white" fill-opacity="0.44"/>
<circle cx="52" cy="534" r="5" fill="white" fill-opacity="0.44"/>
<circle cx="130" cy="479" r="5" fill="white" fill-opacity="0.44"/>
<circle cx="62" cy="415" r="5" fill="white" fill-opacity="0.44"/>
<circle cx="68" cy="556" r="5" fill="white" fill-opacity="0.44"/>
<circle cy="492" r="5" fill="white" fill-opacity="0.44"/>
<circle cx="146" cy="501" r="5" fill="white" fill-opacity="0.44"/>
<circle cx="78" cy="437" r="5" fill="white" fill-opacity="0.44"/>
<circle cx="187" cy="432" r="5" fill="white" fill-opacity="0.44"/>
<circle cx="119" cy="368" r="5" fill="white" fill-opacity="0.44"/>
<circle cx="265" cy="377" r="5" fill="white" fill-opacity="0.44"/>
<circle cx="197" cy="313" r="5" fill="white" fill-opacity="0.44"/>
<circle cx="157" cy="597" r="5" fill="white" fill-opacity="0.44"/>
<circle cx="89" cy="533" r="5" fill="white" fill-opacity="0.44"/>
<circle cx="235" cy="542" r="5" fill="white" fill-opacity="0.44"/>
<circle cx="167" cy="478" r="5" fill="white" fill-opacity="0.44"/>
<circle cx="173" cy="619" r="5" fill="white" fill-opacity="0.44"/>
<circle cx="105" cy="555" r="5" fill="white" fill-opacity="0.44"/>
<circle cx="251" cy="564" r="5" fill="white" fill-opacity="0.44"/>
<circle cx="183" cy="500" r="5" fill="white" fill-opacity="0.44"/>
<circle cx="292" cy="495" r="5" fill="white" fill-opacity="0.44"/>
<circle cx="224" cy="431" r="5" fill="white" fill-opacity="0.44"/>
<circle cx="370" cy="440" r="5" fill="white" fill-opacity="0.44"/>
<circle cx="302" cy="376" r="5" fill="white" fill-opacity="0.44"/>
<circle cx="241" cy="608" r="5" fill="white" fill-opacity="0.44"/>
<circle cx="173" cy="544" r="5" fill="white" fill-opacity="0.44"/>
<circle cx="319" cy="553" r="5" fill="white" fill-opacity="0.44"/>
<circle cx="251" cy="489" r="5" fill="white" fill-opacity="0.44"/>
<circle cx="257" cy="630" r="5" fill="white" fill-opacity="0.44"/>
<circle cx="189" cy="566" r="5" fill="white" fill-opacity="0.44"/>
<circle cx="335" cy="575" r="5" fill="white" fill-opacity="0.44"/>
<circle cx="267" cy="511" r="5" fill="white" fill-opacity="0.44"/>
<circle cx="376" cy="506" r="5" fill="white" fill-opacity="0.44"/>
<circle cx="308" cy="442" r="5" fill="white" fill-opacity="0.44"/>
<circle cx="454" cy="451" r="5" fill="white" fill-opacity="0.44"/>
<circle cx="386" cy="387" r="5" fill="white" fill-opacity="0.44"/>
<circle cx="71" cy="979" r="5" fill="white" fill-opacity="0.44"/>
<circle cx="3" cy="915" r="5" fill="white" fill-opacity="0.44"/>
<circle cx="112" cy="910" r="5" fill="white" fill-opacity="0.44"/>
<circle cx="44" cy="846" r="5" fill="white" fill-opacity="0.44"/>
<circle cx="190" cy="855" r="5" fill="white" fill-opacity="0.44"/>
<circle cx="122" cy="791" r="5" fill="white" fill-opacity="0.44"/>
<circle cx="27" cy="1023" r="5" fill="white" fill-opacity="0.44"/>
<circle cx="68" cy="954" r="5" fill="white" fill-opacity="0.44"/>
<circle cy="890" r="5" fill="white" fill-opacity="0.44"/>
<circle cx="146" cy="899" r="5" fill="white" fill-opacity="0.44"/>
<circle cx="78" cy="835" r="5" fill="white" fill-opacity="0.44"/>
<circle cx="87" cy="1001" r="5" fill="white" fill-opacity="0.44"/>
<circle cx="19" cy="937" r="5" fill="white" fill-opacity="0.44"/>
<circle cx="128" cy="932" r="5" fill="white" fill-opacity="0.44"/>
<circle cx="60" cy="868" r="5" fill="white" fill-opacity="0.44"/>
<circle cx="206" cy="877" r="5" fill="white" fill-opacity="0.44"/>
<circle cx="138" cy="813" r="5" fill="white" fill-opacity="0.44"/>
<circle cx="144" cy="692" r="5" fill="white" fill-opacity="0.44"/>
<circle cx="76" cy="628" r="5" fill="white" fill-opacity="0.44"/>
<circle cx="222" cy="637" r="5" fill="white" fill-opacity="0.44"/>
<circle cx="154" cy="573" r="5" fill="white" fill-opacity="0.44"/>
<circle cx="160" cy="714" r="5" fill="white" fill-opacity="0.44"/>
<circle cx="92" cy="650" r="5" fill="white" fill-opacity="0.44"/>
<circle cx="238" cy="659" r="5" fill="white" fill-opacity="0.44"/>
<circle cx="170" cy="595" r="5" fill="white" fill-opacity="0.44"/>
<circle cx="279" cy="590" r="5" fill="white" fill-opacity="0.44"/>
<circle cx="211" cy="526" r="5" fill="white" fill-opacity="0.44"/>
<circle cx="357" cy="535" r="5" fill="white" fill-opacity="0.44"/>
<circle cx="289" cy="471" r="5" fill="white" fill-opacity="0.44"/>
<circle cx="185" cy="697" r="5" fill="white" fill-opacity="0.44"/>
<circle cx="117" cy="633" r="5" fill="white" fill-opacity="0.44"/>
<circle cx="263" cy="642" r="5" fill="white" fill-opacity="0.44"/>
<circle cx="195" cy="578" r="5" fill="white" fill-opacity="0.44"/>
<circle cx="201" cy="719" r="5" fill="white" fill-opacity="0.44"/>
<circle cx="133" cy="655" r="5" fill="white" fill-opacity="0.44"/>
<circle cx="279" cy="664" r="5" fill="white" fill-opacity="0.44"/>
<circle cx="211" cy="600" r="5" fill="white" fill-opacity="0.44"/>
<circle cx="320" cy="595" r="5" fill="white" fill-opacity="0.44"/>
<circle cx="252" cy="531" r="5" fill="white" fill-opacity="0.44"/>
<circle cx="398" cy="540" r="5" fill="white" fill-opacity="0.44"/>
<circle cx="330" cy="476" r="5" fill="white" fill-opacity="0.44"/>
<circle cx="290" cy="760" r="5" fill="white" fill-opacity="0.44"/>
<circle cx="222" cy="696" r="5" fill="white" fill-opacity="0.44"/>
<circle cx="368" cy="705" r="5" fill="white" fill-opacity="0.44"/>
<circle cx="300" cy="641" r="5" fill="white" fill-opacity="0.44"/>
<circle cx="306" cy="782" r="5" fill="white" fill-opacity="0.44"/>
<circle cx="238" cy="718" r="5" fill="white" fill-opacity="0.44"/>
<circle cx="384" cy="727" r="5" fill="white" fill-opacity="0.44"/>
<circle cx="316" cy="663" r="5" fill="white" fill-opacity="0.44"/>
<circle cx="425" cy="658" r="5" fill="white" fill-opacity="0.44"/>
<circle cx="357" cy="594" r="5" fill="white" fill-opacity="0.44"/>
<circle cx="503" cy="603" r="5" fill="white" fill-opacity="0.44"/>
<circle cx="435" cy="539" r="5" fill="white" fill-opacity="0.44"/>
<circle cx="374" cy="771" r="5" fill="white" fill-opacity="0.44"/>
<circle cx="306" cy="707" r="5" fill="white" fill-opacity="0.44"/>
<circle cx="452" cy="716" r="5" fill="white" fill-opacity="0.44"/>
<circle cx="384" cy="652" r="5" fill="white" fill-opacity="0.44"/>
<circle cx="390" cy="793" r="5" fill="white" fill-opacity="0.44"/>
<circle cx="322" cy="729" r="5" fill="white" fill-opacity="0.44"/>
<circle cx="468" cy="738" r="5" fill="white" fill-opacity="0.44"/>
<circle cx="400" cy="674" r="5" fill="white" fill-opacity="0.44"/>
<circle cx="509" cy="669" r="5" fill="white" fill-opacity="0.44"/>
<circle cx="441" cy="605" r="5" fill="white" fill-opacity="0.44"/>
<circle cx="587" cy="614" r="5" fill="white" fill-opacity="0.44"/>
<circle cx="519" cy="550" r="5" fill="white" fill-opacity="0.44"/>
<circle cx="156" cy="718" r="5" fill="white" fill-opacity="0.44"/>
<circle cx="88" cy="654" r="5" fill="white" fill-opacity="0.44"/>
<circle cx="234" cy="663" r="5" fill="white" fill-opacity="0.44"/>
<circle cx="166" cy="599" r="5" fill="white" fill-opacity="0.44"/>
<circle cx="275" cy="594" r="5" fill="white" fill-opacity="0.44"/>
<circle cx="207" cy="530" r="5" fill="white" fill-opacity="0.44"/>
<circle cx="353" cy="539" r="5" fill="white" fill-opacity="0.44"/>
<circle cx="285" cy="475" r="5" fill="white" fill-opacity="0.44"/>
<circle cx="112" cy="762" r="5" fill="white" fill-opacity="0.44"/>
<circle cx="44" cy="698" r="5" fill="white" fill-opacity="0.44"/>
<circle cx="190" cy="707" r="5" fill="white" fill-opacity="0.44"/>
<circle cx="122" cy="643" r="5" fill="white" fill-opacity="0.44"/>
<circle cx="231" cy="638" r="5" fill="white" fill-opacity="0.44"/>
<circle cx="163" cy="574" r="5" fill="white" fill-opacity="0.44"/>
<circle cx="309" cy="583" r="5" fill="white" fill-opacity="0.44"/>
<circle cx="241" cy="519" r="5" fill="white" fill-opacity="0.44"/>
<circle cx="172" cy="740" r="5" fill="white" fill-opacity="0.44"/>
<circle cx="104" cy="676" r="5" fill="white" fill-opacity="0.44"/>
<circle cx="250" cy="685" r="5" fill="white" fill-opacity="0.44"/>
<circle cx="182" cy="621" r="5" fill="white" fill-opacity="0.44"/>
<circle cx="291" cy="616" r="5" fill="white" fill-opacity="0.44"/>
<circle cx="223" cy="552" r="5" fill="white" fill-opacity="0.44"/>
<circle cx="369" cy="561" r="5" fill="white" fill-opacity="0.44"/>
<circle cx="301" cy="497" r="5" fill="white" fill-opacity="0.44"/>
<circle cx="307" cy="376" r="5" fill="white" fill-opacity="0.44"/>
<circle cx="239" cy="312" r="5" fill="white" fill-opacity="0.44"/>
<circle cx="385" cy="321" r="5" fill="white" fill-opacity="0.44"/>
<circle cx="317" cy="257" r="5" fill="white" fill-opacity="0.44"/>
<circle cx="323" cy="398" r="5" fill="white" fill-opacity="0.44"/>
<circle cx="255" cy="334" r="5" fill="white" fill-opacity="0.44"/>
<circle cx="401" cy="343" r="5" fill="white" fill-opacity="0.44"/>
<circle cx="333" cy="279" r="5" fill="white" fill-opacity="0.44"/>
<circle cx="442" cy="274" r="5" fill="white" fill-opacity="0.44"/>
<circle cx="374" cy="210" r="5" fill="white" fill-opacity="0.44"/>
<circle cx="520" cy="219" r="5" fill="white" fill-opacity="0.44"/>
<circle cx="452" cy="155" r="5" fill="white" fill-opacity="0.44"/>
<circle cx="348" cy="381" r="5" fill="white" fill-opacity="0.44"/>
<circle cx="280" cy="317" r="5" fill="white" fill-opacity="0.44"/>
<circle cx="426" cy="326" r="5" fill="white" fill-opacity="0.44"/>
<circle cx="358" cy="262" r="5" fill="white" fill-opacity="0.44"/>
<circle cx="364" cy="403" r="5" fill="white" fill-opacity="0.44"/>
<circle cx="296" cy="339" r="5" fill="white" fill-opacity="0.44"/>
<circle cx="442" cy="348" r="5" fill="white" fill-opacity="0.44"/>
<circle cx="374" cy="284" r="5" fill="white" fill-opacity="0.44"/>
<circle cx="483" cy="279" r="5" fill="white" fill-opacity="0.44"/>
<circle cx="415" cy="215" r="5" fill="white" fill-opacity="0.44"/>
<circle cx="561" cy="224" r="5" fill="white" fill-opacity="0.44"/>
<circle cx="493" cy="160" r="5" fill="white" fill-opacity="0.44"/>
<circle cx="453" cy="444" r="5" fill="white" fill-opacity="0.44"/>
<circle cx="385" cy="380" r="5" fill="white" fill-opacity="0.44"/>
<circle cx="531" cy="389" r="5" fill="white" fill-opacity="0.44"/>
<circle cx="463" cy="325" r="5" fill="white" fill-opacity="0.44"/>
<circle cx="469" cy="466" r="5" fill="white" fill-opacity="0.44"/>
<circle cx="401" cy="402" r="5" fill="white" fill-opacity="0.44"/>
<circle cx="547" cy="411" r="5" fill="white" fill-opacity="0.44"/>
<circle cx="479" cy="347" r="5" fill="white" fill-opacity="0.44"/>
<circle cx="588" cy="342" r="5" fill="white" fill-opacity="0.44"/>
<circle cx="520" cy="278" r="5" fill="white" fill-opacity="0.44"/>
<circle cx="666" cy="287" r="5" fill="white" fill-opacity="0.44"/>
<circle cx="598" cy="223" r="5" fill="white" fill-opacity="0.44"/>
<circle cx="537" cy="455" r="5" fill="white" fill-opacity="0.44"/>
<circle cx="469" cy="391" r="5" fill="white" fill-opacity="0.44"/>
<circle cx="615" cy="400" r="5" fill="white" fill-opacity="0.44"/>
<circle cx="547" cy="336" r="5" fill="white" fill-opacity="0.44"/>
<circle cx="553" cy="477" r="5" fill="white" fill-opacity="0.44"/>
<circle cx="485" cy="413" r="5" fill="white" fill-opacity="0.44"/>
<circle cx="631" cy="422" r="5" fill="white" fill-opacity="0.44"/>
<circle cx="563" cy="358" r="5" fill="white" fill-opacity="0.44"/>
<circle cx="672" cy="353" r="5" fill="white" fill-opacity="0.44"/>
<circle cx="604" cy="289" r="5" fill="white" fill-opacity="0.44"/>
<circle cx="750" cy="298" r="5" fill="white" fill-opacity="0.44"/>
<circle cx="682" cy="234" r="5" fill="white" fill-opacity="0.44"/>
</g>
<defs>
<clipPath id="clip0_1126_66981">
<rect width="1440" height="1024" fill="white"/>
</clipPath>
</defs>
</svg>
